PathFileType	4	(X/Y/Z)	C:/Users/beibeiliu/ov580/test_trc/User3\sequence.7_training_dense_left.trc
DataRate	CameraRate	NumFrames	NumMarkers	Units	OrigDataRate	OrigDataStartFrame	OrigNumFrames
120	120	21	19	mm	120	207	236
Frame#	Time	ThumbCMC			ThumbMCP			ThumbIP			ThumbTip			IndexMCP			IndexPIP			IndexTip			MiddleMCP			MiddlePIP			MiddleTip			RingMCP			RingPIP			RingTip			PinkyMCP			PinkyPIP			PinkyTip			BackHand1			BackHand2			BackHand3	
		X0	Y0	Z0	X1	Y1	Z1	X2	Y2	Z2	X3	Y3	Z3	X4	Y4	Z4	X5	Y5	Z5	X6	Y6	Z6	X7	Y7	Z7	X8	Y8	Z8	X9	Y9	Z9	X10	Y10	Z10	X11	Y11	Z11	X12	Y12	Z12	X13	Y13	Z13	X14	Y14	Z14	X15	Y15	Z15	X16	Y16	Z16	X17	Y17	Z17	X18	Y18	Z18	
206	1.71667	-173.986	4.73931	15.302	-157.451	5.5968	-11.2669	-156.693	-1.59719	-41.3535	-168.014	-18.6297	-62.6615	-204.539	22.9606	-51.9837	-201.674	30.9263	-81.9581	-201.151	31.487	-105.879	-200.1	-3.92345	-61.8052	-178.781	-27.9489	-63.4594	-178.771	-24.8093	-25.0546	-209.085	-26.1879	-52.4509	-183.007	-43.2976	-44.1584	-189.125	-33.5434	-11.2281	-217.141	-38.8928	-43.3738	-191.714	-49.8417	-34.3514	-192.841	-39.1125	-4.20092	-234.891	-5.23844	-6.09183	-237.263	-17.3803	27.6481	-210.006	11.9898	12.2917	
207	1.725	-180.405	5.97716	13.5816	-163.049	7.13519	-15.6369	-162.247	-0.956636	-47.3197	-170.792	-20.497	-64.3447	-214.625	17.9056	-57.4281	-214.772	21.3866	-83.1656	-217.023	18.979	-107.44	-208.721	-12.5351	-63.6636	-183.437	-31.4574	-65.1703	-184.182	-28.027	-24.3874	-210.865	-29.3828	-53.1897	-189.503	-48.7176	-44.5074	-188.959	-35.8325	-14.2978	-219.555	-49.1403	-43.6293	-194.489	-57.0984	-33.3276	-198.033	-45.4122	-3.78031	-239.42	-11.9015	-5.27821	-240.127	-17.9052	25.3731	-217.14	8.28009	13.3682	
208	1.73333	-185.35	7.37481	10.66	-172.971	7.08331	-20.9869	-167.771	-3.19456	-51.5745	-178.585	-28.212	-65.7471	-225.908	6.74627	-59.6434	-228.292	10.3273	-87.761	-232.35	3.77524	-109.704	-217.301	-20.1959	-63.1454	-187.304	-35.3619	-64.4453	-189.88	-29.2906	-23.4502	-219.011	-40.3875	-51.7815	-188.257	-48.2729	-42.2728	-192.811	-35.5303	-12.0826	-220.773	-51.4221	-42.4806	-194.6	-56.8512	-30.5036	-196.018	-47.6621	-6.43788	-243.537	-19.1131	-3.50921	-241.904	-23.1415	27.3447	-224.718	4.46061	9.41711	
209	1.74167	-191.437	8.34985	5.89121	-176.655	8.22584	-23.2335	-175.809	-7.4118	-55.839	-182.628	-30.3055	-64.7576	-231.803	0.636082	-59.2198	-237.884	-4.23889	-87.593	-243.541	-13.1102	-111.561	-222.25	-29.2021	-63.7667	-189.934	-41.7479	-63.3496	-189.96	-26.7773	-25.7121	-220.859	-42.9572	-51.421	-190.437	-52.0904	-44.5191	-194.315	-35.6624	-12.6173	-222.381	-60.1609	-39.2464	-196.18	-62.7126	-28.5138	-199.909	-45.5965	-2.40325	-248.891	-24.4394	-4.72907	-243.689	-22.0014	22.7393	-231.127	3.28573	8.11093	
210	1.75	-199.02	9.55161	-0.678547	-183.357	6.60113	-28.2432	-181.932	-10.3037	-55.3167	-186.449	-35.4746	-67.3567	-239.79	-4.89992	-65.4383	-245.595	-12.0753	-91.7782	-250.318	-24.3414	-109.937	-223.766	-34.7737	-65.6249	-194.352	-42.7863	-66.1401	-196.525	-29.5478	-24.9115	-221.889	-51.5199	-49.9483	-193.3	-53.7299	-44.2206	-195.662	-37.4136	-14.3787	-224.694	-65.8969	-37.6479	-196.215	-63.4217	-27.5661	-199.705	-45.2505	-3.85769	-251.959	-26.6315	-3.10697	-245.026	-26.9699	28.447	-235.494	1.80171	1.56417	
211	1.75833	-204.641	7.36367	-1.44446	-191.903	4.3036	-33.3392	-186.039	-12.5414	-60.0382	-188.659	-35.7703	-65.3946	-246.32	-12.2981	-66.7087	-251.37	-22.6466	-87.8307	-257.902	-36.4602	-110.824	-228.769	-40.9947	-63.5247	-197.17	-46.2902	-65.5832	-199.683	-31.2061	-25.6805	-221.867	-56.9669	-51.0918	-192.78	-56.1721	-40.6919	-199.77	-36.6723	-12.9549	-222.291	-68.2122	-38.2738	-198.221	-64.1521	-29.1429	-199.682	-46.1824	-5.42708	-256.032	-35.4226	-4.8071	-248.8	-30.9257	25.058	-241.327	1.70386	0.6976	
212	1.76667	-208.514	11.812	-5.74081	-192.81	8.78357	-35.5588	-190.774	-13.8921	-61.401	-191.603	-38.3595	-65.8365	-250.691	-18.5414	-65.8422	-256.741	-27.5447	-87.8459	-261.744	-40.6406	-109.972	-231.192	-39.3327	-63.7041	-199.136	-49.5985	-63.0652	-200.529	-29.2247	-28.3804	-225.808	-57.1118	-49.9728	-194.571	-54.9539	-41.0176	-198.843	-39.0059	-15.9717	-226.88	-68.7	-34.504	-198.301	-64.3405	-29.3545	-202.215	-50.0406	-3.91947	-256.314	-39.4074	-2.72461	-250.813	-32.1477	28.195	-244.732	-6.9422	0.111533	
213	1.775	-213.906	7.8573	-3.32678	-196.548	8.23846	-37.571	-195.256	-13.921	-60.7586	-195.355	-42.0065	-69.5208	-255.542	-23.9041	-65.8524	-260.775	-31.5203	-88.2384	-264.239	-46.8352	-105.371	-230.15	-45.2662	-66.4055	-200.87	-47.8819	-66.3955	-201.038	-32.9872	-29.3736	-226.998	-59.3918	-49.1837	-195.596	-55.5991	-42.6945	-199.121	-36.7957	-17.5764	-224.45	-69.1492	-35.6374	-198.415	-60.7104	-29.8241	-202.808	-45.0171	-2.58305	-257.904	-42.2665	-3.29663	-250.618	-34.4725	26.7257	-246.702	-4.22289	1.32297	
214	1.78333	-215.849	9.22785	-5.32878	-201.288	5.35562	-39.0714	-196.13	-15.4047	-61.5619	-194.256	-38.735	-66.2572	-256.704	-23.8853	-65.9142	-260.748	-36.1284	-86.5587	-264.395	-49.0574	-110.161	-233.759	-43.9229	-64.3843	-198.523	-43.1823	-65.3485	-202.178	-27.1695	-29.8592	-226.467	-60.3807	-48.2349	-196.643	-57.6411	-43.2311	-202.77	-36.8525	-14.9494	-223.791	-70.5604	-35.3957	-197.128	-60.515	-27.1245	-204.331	-44.17	-0.951792	-259.957	-41.1186	-5.88912	-251.316	-32.7962	25.1537	-251.592	-7.13923	0.621206	
215	1.79167	-217.043	7.63418	-7.04094	-201.799	6.9156	-37.7484	-194.871	-13.6473	-60.9444	-192.273	-36.293	-65.9876	-253.729	-24.3998	-61.4428	-259.524	-37.0129	-84.8354	-261.783	-50.3946	-105.89	-230.58	-47.2091	-64.893	-200.447	-45.4296	-66.7358	-202.403	-26.9354	-27.8422	-222.301	-58.6537	-51.3401	-195.583	-57.2128	-40.4966	-200.204	-34.8696	-16.0554	-220.272	-71.8533	-35.3901	-196.775	-61.0175	-28.4938	-203.057	-42.2577	-2.11429	-257.596	-43.2952	-4.70816	-253.159	-30.3877	26.4627	-252.744	-6.94785	-2.58012	
216	1.8	-216.495	9.98976	-2.57468	-201.464	6.37842	-37.9971	-192.808	-9.83548	-60.2202	-192.33	-36.8213	-66.3539	-253.181	-23.4143	-63.5267	-257.731	-38.0197	-89.3772	-259.485	-48.7043	-108.72	-230.692	-41.5094	-64.9743	-195.251	-42.4124	-65.0104	-201.107	-29.1846	-27.6228	-223.749	-56.6267	-47.9188	-193.281	-53.9463	-39.3562	-200.534	-32.281	-14.2668	-219.814	-67.912	-36.5516	-195.262	-59.8461	-28.6105	-201.884	-40.4045	-3.52733	-257.809	-39.1595	-6.72322	-252.247	-34.4492	24.3791	-250.863	-7.22347	-1.57138	
217	1.80833	-214.073	12.8256	-7.16765	-198.252	8.08115	-37.0336	-188.902	-7.67691	-57.3508	-188.53	-33.7686	-64.5478	-249.012	-20.6721	-66.9811	-251.727	-31.7076	-87.812	-251.828	-42.4144	-113.23	-223.602	-42.3303	-68.0936	-192.435	-41.1823	-65.0069	-196.773	-27.3028	-27.4803	-216.753	-55.4506	-49.7674	-190.431	-53.9895	-38.7288	-199.562	-30.1076	-12.8931	-218.27	-67.0442	-34.2009	-191.854	-60.9323	-25.1192	-203.47	-41.2034	-1.86881	-256.14	-38.3706	-8.05327	-250.121	-32.5204	24.5428	-248.989	-6.56049	-1.96711	
218	1.81667	-210.928	12.27	-5.37596	-193.286	10.7068	-32.6905	-185.146	-7.29318	-57.2948	-181.985	-33.2534	-65.2104	-242.414	-18.0908	-66.3152	-243.864	-28.0736	-89.9884	-242.129	-37.6154	-116.347	-219.525	-41.8818	-67.4251	-188.984	-42.5525	-63.5693	-195.294	-26.8658	-25.8297	-214.856	-54.798	-48.0704	-184.867	-49.0742	-37.1327	-195.225	-33.6798	-11.7692	-214.844	-68.0697	-33.521	-189.255	-54.7152	-25.0949	-201.146	-39.379	-0.364744	-252.622	-37.6466	-8.64383	-250.977	-33.3216	22.5518	-247.391	-4.83283	-0.0334926	
219	1.825	-207.199	11.6821	-2.27634	-187.777	12.1332	-30.9097	-179.735	-8.02229	-57.8818	-175.881	-30.8064	-61.7596	-236.013	-15.7569	-66.4843	-236.03	-26.6579	-91.213	-230.229	-36.3323	-119.826	-215.03	-39.3444	-64.6186	-183.384	-43.8661	-61.326	-190.417	-28.8231	-24.5755	-206.006	-54.3757	-48.9304	-181.613	-49.0122	-37.5463	-193.623	-31.7878	-8.55007	-209.73	-63.3906	-34.3011	-185.287	-58.6126	-22.158	-197.287	-40.8197	-1.64078	-247.492	-38.5114	-9.66544	-249.094	-30.4197	21.2135	-242.785	-5.81433	-3.01928	
220	1.83333	-202.459	13.2759	0.281747	-182.827	11.515	-27.9835	-170.41	-4.26413	-52.9634	-170.856	-32.2115	-59.958	-226.871	-16.7838	-66.8573	-223.402	-25.2048	-94.9196	-217.481	-32.4172	-117.049	-208.067	-36.5101	-63.4523	-174.352	-40.2132	-58.4317	-186.024	-25.2836	-20.8786	-200.28	-55.2195	-47.83	-176.968	-52.9943	-31.7941	-188.924	-34.224	-7.38198	-200.588	-67.4484	-33.6739	-180.484	-58.6566	-19.8068	-196.403	-39.9505	1.20589	-243.721	-41.2006	-10.8884	-243.823	-29.8127	18.2686	-237.936	-3.24251	-4.50028	
221	1.84167	-197.395	14.2092	2.15355	-175.593	10.6299	-26.5513	-163.506	-7.94125	-50.6494	-161.356	-33.7905	-57.6771	-216.104	-17.6332	-66.2906	-209.962	-25.0356	-92.1446	-198.678	-34.3342	-116.287	-197.419	-37.6093	-63.4138	-166.076	-44.2903	-51.2382	-181.161	-28.3765	-16.0196	-194.28	-52.9204	-45.8567	-170.467	-52.6579	-26.9131	-187.731	-34.9544	-2.36428	-195.668	-64.5081	-32.4116	-175.88	-59.553	-14.711	-193.361	-44.2991	7.20594	-238.004	-38.1493	-13.7508	-244.496	-31.4142	22.3561	-232.669	-1.71027	-6.59388	
222	1.85	-193.723	11.5351	3.44495	-169.821	8.85945	-23.5304	-156.34	-9.4347	-46.5823	-154.047	-37.4037	-52.5486	-205.081	-16.8153	-65.6534	-194.853	-24.6245	-90.5195	-181.048	-34.2591	-111.785	-189.033	-39.5272	-58.6966	-156.218	-43.5291	-44.673	-175.155	-30.1559	-11.4532	-184.334	-54.3716	-42.6617	-163.089	-54.1335	-21.575	-181.82	-37.5716	1.96295	-192.997	-67.2462	-27.125	-170.522	-59.5781	-7.14696	-190.526	-44.6008	11.3604	-233.33	-41.3997	-13.7861	-238.83	-30.6989	18.3341	-228.089	-6.11107	-2.81943	
223	1.85833	-189.42	12.4922	4.43612	-163.838	9.60918	-14.7755	-150.635	-10.2165	-35.5646	-142.652	-35.5318	-45.1876	-192.988	-20.7312	-65.3354	-180.535	-31.5072	-86.9727	-162.498	-42.294	-106.154	-177.016	-45.7607	-53.5147	-147.13	-45.0576	-39.9079	-167.655	-27.8202	-6.391	-177.082	-55.3012	-37.5871	-156.768	-52.2567	-12.9005	-175.003	-35.586	4.9684	-180.11	-67.1284	-24.2314	-164.702	-57.3337	-4.28627	-185.828	-43.6735	14.5147	-227.78	-39.1304	-15.2974	-238.257	-35.3969	15.0092	-222.092	-8.1228	-4.74997	
224	1.86667	-185.014	9.77515	6.33044	-159.027	4.63385	-13.3107	-136.866	-10.0332	-29.3829	-132.216	-37.199	-35.549	-180.117	-23.5827	-63.3793	-163.309	-35.3809	-83.5044	-142.423	-44.1121	-98.4706	-164.396	-47.6022	-48.3825	-139.027	-47.5546	-27.0485	-162.133	-26.4035	-1.23148	-171.161	-57.8316	-30.2751	-150.393	-54.1833	-4.15977	-170.929	-34.1674	10.4125	-172.819	-71.3636	-17.776	-158.968	-60.6842	4.60591	-182.24	-41.7321	18.4475	-221.954	-43.5084	-12.7014	-235.116	-33.3503	15.4009	-216.567	-6.1399	-8.1999	
225	1.875	-180.701	11.606	8.67236	-150.125	8.41212	-7.4785	-134.078	-11.7666	-18.6149	-125.802	-41.7872	-26.7196	-168.319	-28.4989	-60.4296	-147.9	-35.4846	-77.8101	-130.961	-49.1029	-86.5426	-158.368	-45.2708	-42.9729	-132.288	-48.4671	-20.4097	-155.907	-28.1268	3.67469	-158.332	-60.8001	-23.5946	-142.729	-49.8477	0.407748	-166.598	-34.7558	15.8182	-165.476	-68.0033	-12.2202	-154.773	-58.0463	10.2091	-179.509	-41.9521	23.188	-215.984	-44.0333	-12.3178	-228.962	-33.5822	17.5209	-211.022	-7.88879	-6.389	
226	1.88333	-176.509	11.0645	9.76985	-147.1	3.02367	-1.82321	-122.598	-16.0336	-15.2693	-120.611	-44.7441	-17.1154	-160.128	-28.0761	-53.8577	-138.341	-38.4594	-70.7789	-117.709	-48.3984	-79.2962	-148.225	-46.7853	-36.8354	-125.588	-44.3787	-11.0818	-153.961	-25.6508	8.41296	-151.256	-57.265	-19.124	-139.436	-51.7823	7.71143	-164.662	-30.8525	18.7834	-158.185	-70.9594	-5.23278	-150.776	-57.9076	18.16	-172.573	-40.6283	24.2795	-208.361	-49.0286	-11.7589	-224.374	-33.5055	14.0146	-208.419	-10.3846	-4.36421	
